<svg xmlns="http://www.w3.org/2000/svg" xmlns:xlink="http://www.w3.org/1999/xlink" width="640" zoomAndPan="magnify" viewBox="0 0 480 525.000007" height="700" preserveAspectRatio="xMidYMid meet" version="1.0"><defs><clipPath id="20abf68234"><path d="M 20.226562 20.316406 L 38.367188 20.316406 L 38.367188 36.441406 L 20.226562 36.441406 Z M 20.226562 20.316406 " clip-rule="nonzero"/></clipPath><clipPath id="d68eaaa5a2"><path d="M 17.859375 16.746094 L 39.78125 16.746094 L 39.78125 21.378906 L 17.859375 21.378906 Z M 17.859375 16.746094 " clip-rule="nonzero"/></clipPath><clipPath id="f44946bfa3"><path d="M 37.464844 21.378906 L 20.191406 21.378906 C 18.914062 21.378906 17.875 20.34375 17.875 19.0625 C 17.875 17.78125 18.914062 16.746094 20.191406 16.746094 L 37.464844 16.746094 C 38.746094 16.746094 39.78125 17.78125 39.78125 19.0625 C 39.78125 20.34375 38.746094 21.378906 37.464844 21.378906 Z M 37.464844 21.378906 " clip-rule="nonzero"/></clipPath><clipPath id="e141ee8750"><path d="M 15.351562 13.300781 L 42.621094 13.300781 L 42.621094 18.710938 L 15.351562 18.710938 Z M 15.351562 13.300781 " clip-rule="nonzero"/></clipPath><clipPath id="9a96f758a2"><path d="M 39.914062 18.710938 L 18.070312 18.710938 C 16.574219 18.710938 15.363281 17.5 15.363281 16.003906 C 15.363281 14.511719 16.574219 13.300781 18.070312 13.300781 L 39.914062 13.300781 C 41.410156 13.300781 42.621094 14.511719 42.621094 16.003906 C 42.621094 17.5 41.410156 18.710938 39.914062 18.710938 Z M 39.914062 18.710938 " clip-rule="nonzero"/></clipPath><clipPath id="dcc5413c0a"><path d="M 23.253906 16.746094 L 39.78125 16.746094 L 39.78125 21.378906 L 23.253906 21.378906 Z M 23.253906 16.746094 " clip-rule="nonzero"/></clipPath><clipPath id="8a4a3b613f"><path d="M 37.464844 21.378906 L 25.578125 21.378906 C 24.296875 21.378906 23.257812 20.34375 23.257812 19.0625 C 23.257812 17.78125 24.296875 16.746094 25.578125 16.746094 L 37.464844 16.746094 C 38.746094 16.746094 39.78125 17.78125 39.78125 19.0625 C 39.78125 20.34375 38.746094 21.378906 37.464844 21.378906 Z M 37.464844 21.378906 " clip-rule="nonzero"/></clipPath><clipPath id="71a21a4bb7"><path d="M 20.386719 13.300781 L 42.601562 13.300781 L 42.601562 18.710938 L 20.386719 18.710938 Z M 20.386719 13.300781 " clip-rule="nonzero"/></clipPath><clipPath id="eefde9beff"><path d="M 39.898438 18.710938 L 23.09375 18.710938 C 21.601562 18.710938 20.386719 17.5 20.386719 16.003906 C 20.386719 14.511719 21.601562 13.300781 23.09375 13.300781 L 39.898438 13.300781 C 41.390625 13.300781 42.601562 14.511719 42.601562 16.003906 C 42.601562 17.5 41.390625 18.710938 39.898438 18.710938 Z M 39.898438 18.710938 " clip-rule="nonzero"/></clipPath><clipPath id="ae6258f9bf"><path d="M 33 22 L 37 22 L 37 32 L 33 32 Z M 33 22 " clip-rule="nonzero"/></clipPath><clipPath id="faa7281cfc"><path d="M 35.339844 31.761719 L 33.007812 31.417969 L 34.40625 21.984375 L 36.738281 22.332031 Z M 35.339844 31.761719 " clip-rule="nonzero"/></clipPath><clipPath id="a9abb2e6c4"><path d="M 34.175781 31.589844 C 33.53125 31.496094 33.085938 30.894531 33.179688 30.25 L 34.234375 23.152344 C 34.328125 22.507812 34.929688 22.066406 35.574219 22.160156 C 36.214844 22.253906 36.660156 22.855469 36.566406 23.5 L 35.515625 30.597656 C 35.417969 31.242188 34.820312 31.6875 34.175781 31.589844 Z M 34.175781 31.589844 " clip-rule="nonzero"/></clipPath><clipPath id="1596261f6a"><path d="M 32 32 L 36 32 L 36 36 L 32 36 Z M 32 32 " clip-rule="nonzero"/></clipPath><clipPath id="b6d6778f1b"><path d="M 34.945312 35.222656 L 32.601562 34.9375 L 32.925781 32.273438 L 35.269531 32.558594 Z M 34.945312 35.222656 " clip-rule="nonzero"/></clipPath><clipPath id="2c1bf213fc"><path d="M 33.773438 35.078125 C 33.125 35 32.667969 34.410156 32.746094 33.765625 L 32.785156 33.445312 C 32.863281 32.800781 33.449219 32.339844 34.097656 32.417969 C 34.742188 32.496094 35.203125 33.085938 35.125 33.730469 L 35.085938 34.050781 C 35.007812 34.695312 34.417969 35.15625 33.773438 35.078125 Z M 33.773438 35.078125 " clip-rule="nonzero"/></clipPath></defs><g clip-path="url(#20abf68234)"><path fill="#3b3838" d="M 33.890625 36.191406 C 35.023438 36.191406 35.992188 35.378906 36.1875 34.265625 L 38.132812 23.242188 C 38.386719 21.816406 37.285156 20.503906 35.835938 20.503906 L 22.921875 20.503906 C 21.472656 20.503906 20.371094 21.816406 20.625 23.242188 L 22.570312 34.265625 C 22.765625 35.378906 23.734375 36.191406 24.867188 36.191406 Z M 33.890625 36.191406 " fill-opacity="1" fill-rule="evenodd"/></g><g clip-path="url(#d68eaaa5a2)"><g clip-path="url(#f44946bfa3)"><path fill="#646469" d="M 39.78125 21.378906 L 17.878906 21.378906 L 17.878906 16.746094 L 39.78125 16.746094 Z M 39.78125 21.378906 " fill-opacity="1" fill-rule="nonzero"/></g></g><g clip-path="url(#e141ee8750)"><g clip-path="url(#9a96f758a2)"><path fill="#000000" d="M 42.621094 18.710938 L 15.371094 18.710938 L 15.371094 13.300781 L 42.621094 13.300781 Z M 42.621094 18.710938 " fill-opacity="1" fill-rule="nonzero"/></g></g><g clip-path="url(#dcc5413c0a)"><g clip-path="url(#8a4a3b613f)"><path fill="#949496" d="M 39.78125 21.378906 L 23.253906 21.378906 L 23.253906 16.746094 L 39.78125 16.746094 Z M 39.78125 21.378906 " fill-opacity="1" fill-rule="nonzero"/></g></g><g clip-path="url(#71a21a4bb7)"><g clip-path="url(#eefde9beff)"><path fill="#3b3838" d="M 42.601562 18.710938 L 20.386719 18.710938 L 20.386719 13.300781 L 42.601562 13.300781 Z M 42.601562 18.710938 " fill-opacity="1" fill-rule="nonzero"/></g></g><g clip-path="url(#ae6258f9bf)"><g clip-path="url(#faa7281cfc)"><g clip-path="url(#a9abb2e6c4)"><path fill="#949496" d="M 35.339844 31.761719 L 33.007812 31.417969 L 34.40625 21.984375 L 36.738281 22.332031 Z M 35.339844 31.761719 " fill-opacity="1" fill-rule="nonzero"/></g></g></g><g clip-path="url(#1596261f6a)"><g clip-path="url(#b6d6778f1b)"><g clip-path="url(#2c1bf213fc)"><path fill="#949496" d="M 34.945312 35.222656 L 32.601562 34.9375 L 32.925781 32.273438 L 35.269531 32.558594 Z M 34.945312 35.222656 " fill-opacity="1" fill-rule="nonzero"/></g></g></g></svg>